<svg xmlns="http://www.w3.org/2000/svg" xmlns:xlink="http://www.w3.org/1999/xlink" xml:lang="en" height="166.83999999999997pt" width="378.704pt" viewBox="-21.496000000000002 -31.199999999999996 378.704 166.83999999999997"><path d="M 0.0,-0.0 L 43.2,-0.0 L 86.4,-0.0" style="stroke:black;fill:none;stroke-width:2.0;stroke-dasharray:-;stroke-linecap:round;stroke-linejoin:round;" /><path d="M 86.4,-0.0 L 122.4,-0.0 L 125.4,-9.0 L 131.4,9.0 L 137.4,-9.0 L 143.4,9.0 L 149.4,-9.0 L 155.39999999999998,9.0 L 158.4,-0.0 L 194.4,-0.0" style="stroke:black;fill:none;stroke-width:2.0;stroke-dasharray:-;stroke-linecap:round;stroke-linejoin:round;" /><path d="M 194.4,-0.0 L 194.4,50.76 M 203.4,50.76 L 185.4,50.76 M 203.4,57.239999999999995 L 185.4,57.239999999999995 M 194.4,57.239999999999995 L 194.39999999999998,108.0" style="stroke:black;fill:none;stroke-width:2.0;stroke-dasharray:-;stroke-linecap:round;stroke-linejoin:round;" /><path d="M 194.39999999999998,108.0 L 194.39999999999998,122.39999999999999 L 185.39999999999998,122.39999999999999 L 203.39999999999998,122.39999999999999 M 188.1,126.72 L 200.7,126.72 M 192.6,131.04 L 196.2,131.04" style="stroke:black;fill:none;stroke-width:2.0;stroke-dasharray:-;stroke-linecap:round;stroke-linejoin:round;" /><path d="M 194.4,-0.0 L 237.60000000000002,-0.0 L 280.8,-0.0" style="stroke:black;fill:none;stroke-width:2.0;stroke-dasharray:-;stroke-linecap:round;stroke-linejoin:round;" /><text x="3.6" y="-17.6" dominant-baseline="central" fill="black" font-size="14.0" font-family="sans" text-anchor="end"><tspan x="3.6" dy="14.0">Vin</tspan></text><text x="140.4" y="-26.6" dominant-baseline="ideographic" fill="black" font-size="14.0" font-family="sans" text-anchor="middle"><tspan x="140.4" dy="14.0">10 kΩ</tspan></text><text x="194.4" y="-17.6" dominant-baseline="ideographic" fill="black" font-size="14.0" font-family="sans" text-anchor="middle"><tspan x="194.4" dy="14.0">33 nF</tspan></text><text x="284.40000000000003" y="-17.6" dominant-baseline="central" fill="black" font-size="14.0" font-family="sans" text-anchor="start"><tspan x="284.40000000000003" dy="14.0">PA0 (ADC)</tspan></text><circle cx="194.4" cy="-0.0" r="2.6999999999999997" style="stroke:black;fill:black;stroke-width:2.0;stroke-dasharray:-;" /></svg>