<svg xmlns="http://www.w3.org/2000/svg" xmlns:xlink="http://www.w3.org/1999/xlink" xml:lang="en" height="265.84pt" width="346.7780000000001pt" viewBox="-19.59400000000002 -22.200000000000003 346.7780000000001 265.84"><path d="M 0.0,-0.0 L 0.0,-14.4" style="stroke:black;fill:none;stroke-width:2.0;stroke-dasharray:-;stroke-linecap:round;stroke-linejoin:round;" /><path d="M 0.0,-14.4 L -6.75,-14.4" style="stroke:black;fill:none;stroke-width:2.0;stroke-dasharray:-;stroke-linecap:round;stroke-linejoin:round;" /><path d="M 0.0,-14.4 L 6.75,-14.4" style="stroke:black;fill:none;stroke-width:2.0;stroke-dasharray:-;stroke-linecap:round;stroke-linejoin:round;" /><path d="M 0.0,-0.0 L -6.613092715395707e-15,36.0 L 8.999999999999993,39.0 L -9.000000000000007,45.0 L 8.999999999999991,50.99999999999999 L -9.00000000000001,57.0 L 8.999999999999988,63.0 L -9.000000000000012,69.0 L -1.3226185430791413e-14,72.0 L -1.9839278146187122e-14,108.0" style="stroke:black;fill:none;stroke-width:2.0;stroke-dasharray:-;stroke-linecap:round;stroke-linejoin:round;" /><path d="M -1.9839278146187122e-14,108.0 L 26.99999999999998,108.0 L 53.999999999999986,108.0" style="stroke:black;fill:none;stroke-width:2.0;stroke-dasharray:-;stroke-linecap:round;stroke-linejoin:round;" /><path d="M 53.999999999999986,108.0 L 89.99999999999999,108.0 L 92.99999999999999,99.0 L 98.99999999999999,117.0 L 104.99999999999997,99.0 L 110.99999999999999,117.0 L 116.99999999999999,99.0 L 122.99999999999997,117.0 L 125.99999999999999,108.0 L 162.0,108.0" style="stroke:black;fill:none;stroke-width:2.0;stroke-dasharray:-;stroke-linecap:round;stroke-linejoin:round;" /><path d="M 162.0,108.0 L 162.0,158.76 M 171.0,158.76 L 153.0,158.76 M 171.0,165.24 L 153.0,165.24 M 162.0,165.24 L 161.99999999999997,216.0" style="stroke:black;fill:none;stroke-width:2.0;stroke-dasharray:-;stroke-linecap:round;stroke-linejoin:round;" /><path d="M 161.99999999999997,216.0 L 161.99999999999997,230.4 L 152.99999999999997,230.4 L 170.99999999999997,230.4 M 155.7,234.71999999999997 L 168.29999999999995,234.71999999999997 M 160.2,239.04 L 163.79999999999995,239.04" style="stroke:black;fill:none;stroke-width:2.0;stroke-dasharray:-;stroke-linecap:round;stroke-linejoin:round;" /><path d="M 162.0,108.0 L 189.0,108.0 L 216.0,108.0" style="stroke:black;fill:none;stroke-width:2.0;stroke-dasharray:-;stroke-linecap:round;stroke-linejoin:round;" /><path d="M -1.9839278146187122e-14,108.0 L -2.6452370861582827e-14,144.0 L 8.999999999999973,147.0 L -9.000000000000028,153.0 L 8.999999999999972,158.99999999999997 L -9.00000000000003,165.0 L 8.999999999999968,171.0 L -9.000000000000032,176.99999999999997 L -3.3065463576978534e-14,180.0 L -3.9678556292374245e-14,216.0" style="stroke:black;fill:none;stroke-width:2.0;stroke-dasharray:-;stroke-linecap:round;stroke-linejoin:round;" /><path d="M -3.9678556292374245e-14,216.0 L -3.9678556292374245e-14,230.4 L -9.000000000000039,230.4 L 8.999999999999961,230.4 M -6.30000000000004,234.71999999999997 L 6.29999999999996,234.71999999999997 M -1.8000000000000398,239.04 L 1.7999999999999603,239.04" style="stroke:black;fill:none;stroke-width:2.0;stroke-dasharray:-;stroke-linecap:round;stroke-linejoin:round;" /><text x="10.35" y="-21.2" dominant-baseline="central" fill="black" font-size="14.0" font-family="sans" text-anchor="start"><tspan x="10.35" dy="14.0">3V3</tspan></text><text x="6.613092715395712e-16" y="-17.6" dominant-baseline="ideographic" fill="black" font-size="14.0" font-family="sans" text-anchor="middle"><tspan x="6.613092715395712e-16" dy="14.0">1 kΩ</tspan></text><text x="107.99999999999999" y="81.39999999999999" dominant-baseline="ideographic" fill="black" font-size="14.0" font-family="sans" text-anchor="middle"><tspan x="107.99999999999999" dy="14.0">10 kΩ</tspan></text><text x="162.0" y="90.39999999999999" dominant-baseline="ideographic" fill="black" font-size="14.0" font-family="sans" text-anchor="middle"><tspan x="162.0" dy="14.0">33 nF</tspan></text><text x="219.6" y="90.39999999999999" dominant-baseline="central" fill="black" font-size="14.0" font-family="sans" text-anchor="start"><tspan x="219.6" dy="14.0">PA0 / ADC1_IN0</tspan></text><text x="-1.917796887464755e-14" y="90.39999999999999" dominant-baseline="ideographic" fill="black" font-size="14.0" font-family="sans" text-anchor="middle"><tspan x="-1.917796887464755e-14" dy="14.0">1 kΩ</tspan></text><circle cx="-1.9839278146187122e-14" cy="108.0" r="2.6999999999999997" style="stroke:black;fill:black;stroke-width:2.0;stroke-dasharray:-;" /><circle cx="162.0" cy="108.0" r="2.6999999999999997" style="stroke:black;fill:black;stroke-width:2.0;stroke-dasharray:-;" /></svg>